<svg xmlns="http://www.w3.org/2000/svg" viewBox="0 0 2548.1 3000"><path d="M938.01 2999.97c-197.56 0-392.58 0-587.6-.04-169.2-.04-303.22-105.36-342.54-269.58-5.52-23.07-7.87-46.68-7.87-70.54.08-776.68-.03-1553.37.15-2330.05C.19 165.67 132.47 20.37 294.71 3.7c22-2.26 43.84-3.47 65.84-3.48C977.83.16 1595.1-.36 2212.38.41c208.53.26 335.92 176.15 335.71 334-1 775.83-1.04 1551.67.01 2327.5.22 164.74-123.44 307.2-285.21 333.25-21.04 3.39-41.97 4.84-63.21 4.83-419.71-.1-839.42-.05-1261.68-.03m1427.92-1624.81c.02-342.51-1.05-685.03.78-1027.53.51-95.82-69.49-162.92-161.17-162.66-621.43 1.75-1242.88.9-1864.32.93-99.05 0-159.53 60.76-159.55 160.16-.03 140.74 0 281.47 0 422.21 0 200.08-.14 400.16.08 600.24.08 73.4 54.75 131.72 123.06 131.73 644.33.05 1288.66.01 1932.99-.05 10.11 0 20.05-.05 30.15-2.99 59.18-17.24 87.99-59.37 97.99-122.04M401.21 1682.14c-61.89 0-123.77-.07-185.66 0-33.83.04-33.88.15-33.89 33.37-.01 311.14-.05 622.28.03 933.43.03 106.47 62.75 169.15 169.07 169.16 615.5.03 1231 .03 1846.51 0 106.7 0 168.69-62.15 168.71-169.15.05-308.6.02-617.2 0-925.8 0-6.78-.42-13.59-.02-20.34.92-15.58-6.89-21.44-21.61-20.64-6.76.37-13.56-.03-20.34-.03H401.2Z"/><path d="M1627.43 832.97c-80.79 81.14-161.78 159.63-239.37 241.33-59.53 62.69-121.52 122.86-181.74 184.82-47.36 48.73-106.51 49.68-154.63 1.99-108.35-107.39-215.55-215.93-323.97-323.24-61.46-60.83-30.71-147.53 37.31-162.09 37.66-8.06 68.09 5.18 94.35 31.02 81.53 80.24 163.01 160.53 244.29 241.01 7.17 7.1 12.76 15.81 19.17 23.87 18.11-8.89 27.34-21.37 37.78-31.84 188.98-189.77 377.81-379.69 566.39-569.86 44.48-44.86 100.97-51.2 139.84-14.31 39.68 37.66 39.49 97.2-1.23 138.27-78.77 79.45-157.93 158.53-238.2 239.04ZM1324.71 1866.55c35.59.01 68.64-.35 101.68.13 59.55.87 112.33 52.06 113.01 112.05 1.1 97.44 1.23 194.9.06 292.33-.87 72.12-52.58 122.48-124.7 122.98-91.51.63-183.04.76-274.54-.06-78.4-.71-127.53-51.51-127.63-130.21-.12-93.21-.13-186.42 0-279.63.1-68.11 48.59-117.15 116.37-117.48 64.4-.31 128.8-.09 195.74-.11M1184 2195.06c-1.72 16.63 4.21 25.25 22.5 25.02 45.71-.59 91.44-.34 137.15.04 18.31.15 25.56-7.91 25.26-26.26-.72-44.01-.78-88.06.05-132.07.32-17.26-5.05-24.21-23.2-23.82-45.7.99-91.44.96-137.14.03-18.95-.39-25.35 6.77-24.94 25.31.92 42.31.31 84.66.33 131.75ZM738.71 2394.23c-88.87 0-175.3.28-261.72-.12-65.72-.31-112.17-31.83-127.49-87.79-5.29-19.33-7.78-39.96-7.99-60.04-.87-82.18-1.42-164.4.02-246.57.9-51.27 15.05-97.13 66.43-122.06 14.79-7.18 29.78-11.19 46.33-11.14 98.29.25 196.59-.2 294.88.22 66.19.28 116.86 48.44 117.8 114.56 1.42 99.12 1.67 198.29.13 297.41-1.06 68.33-51.71 113.04-128.38 115.54m-52.93-174.66c9.08-2.38 11.32-9.23 11.32-17.47.03-49.05-.05-98.1.12-147.14.04-11.69-5.22-16.81-16.91-16.76-48.2.23-96.41.25-144.61.18-12.67-.02-18.46 5.91-18.43 18.56.15 48.2.22 96.41-.01 144.61-.06 12.37 5.21 20.74 17.52 19.67 48.99-4.29 97.97 2.73 151-1.65ZM1684.19 2006.06c-1.2-34.21.8-65.09 20.69-92.02 22.64-30.65 52.6-47.28 90.87-47.36 99.1-.21 198.2-.46 297.3.1 63.45.36 113.52 51.74 113.61 115.41.13 95.71-2.41 191.51.78 287.11 2.6 77.82-54.29 123.18-118.1 124.37-95.68 1.78-191.45 2.04-287.12-.07-70.89-1.57-117.71-52.6-117.95-123.3-.3-87.24-.08-174.48-.08-264.23m356.17 139.62c-.01-28.76-.46-57.53.14-86.28.3-14.71-4.39-21.6-20.31-21.38-48.21.68-96.43.48-144.65.21-13.83-.08-19.99 5.56-19.91 19.62.3 48.22.37 96.44-.06 144.65-.14 15.92 7.1 20.73 21.98 19.42 39.68-3.51 79.37-1.94 119.1.19 40.45 2.17 43.66-1.38 43.71-40.92.01-10.15 0-20.3 0-35.51Z"/></svg>